<?xml version="1.0" standalone="no"?>
<!DOCTYPE svg PUBLIC "-//W3C//DTD SVG 20010904//EN"
 "http://www.w3.org/TR/2001/REC-SVG-20010904/DTD/svg10.dtd">
<svg version="1.0" xmlns="http://www.w3.org/2000/svg"
 width="1500.000000pt" height="1500.000000pt" viewBox="0 0 1500.000000 1500.000000"
 preserveAspectRatio="xMidYMid meet">
<metadata>
Created by potrace 1.11, written by Peter Selinger 2001-2013
</metadata>
<g transform="translate(0.000000,1500.000000) scale(0.100000,-0.100000)"
fill="#000000" stroke="none">
<path d="M6145 13299 c-24 -5 -20 -7 23 -8 28 0 52 1 52 3 0 8 -47 11 -75 5z"/>
<path d="M6643 13273 c37 -2 96 -2 130 0 34 2 4 3 -68 3 -71 0 -99 -1 -62 -3z"/>
<path d="M5475 13240 c-26 -6 -22 -8 23 -9 33 -1 51 3 47 9 -7 11 -26 11 -70
0z"/>
<path d="M7540 13199 c0 -5 21 -9 47 -9 25 0 44 3 41 6 -10 10 -88 13 -88 3z"/>
<path d="M4843 13096 c-35 -7 -66 -16 -70 -19 -12 -13 52 -6 122 12 80 22 46
26 -52 7z"/>
<path d="M9774 12481 c4 -5 50 -31 104 -56 53 -26 111 -58 127 -70 40 -29 122
-65 149 -65 17 0 16 3 -9 14 -76 35 -104 46 -112 46 -4 0 -25 20 -46 45 -28
32 -50 48 -80 55 -23 6 -57 17 -75 25 -37 17 -66 20 -58 6z"/>
<path d="M3029 12225 c-14 -8 -34 -26 -43 -40 l-17 -26 38 16 c38 16 53 30 53
53 0 15 1 15 -31 -3z"/>
<path d="M10350 12146 c0 -2 7 -7 16 -10 8 -3 12 -2 9 4 -6 10 -25 14 -25 6z"/>
<path d="M10405 12130 c-4 -6 6 -10 22 -10 22 0 25 2 13 10 -19 12 -27 12 -35
0z"/>
<path d="M2910 12111 c-45 -29 -67 -71 -37 -71 20 0 69 56 65 73 -3 13 -6 13
-28 -2z"/>
<path d="M10495 12080 c3 -5 8 -10 11 -10 2 0 4 5 4 10 0 6 -5 10 -11 10 -5 0
-7 -4 -4 -10z"/>
<path d="M10525 12050 c8 -14 95 -63 101 -58 4 5 -91 68 -102 68 -3 0 -2 -4 1
-10z"/>
<path d="M2768 11958 c-92 -105 -95 -110 -70 -101 33 13 152 133 152 154 0 32
-16 22 -82 -53z"/>
<path d="M10880 11816 c0 -9 154 -106 159 -101 9 9 -31 41 -92 74 -59 31 -67
35 -67 27z"/>
<path d="M2510 11672 c-34 -36 -74 -91 -89 -122 -9 -19 -5 -16 16 9 15 19 45
55 66 79 20 24 37 47 37 53 0 13 -2 12 -30 -19z"/>
<path d="M11169 11591 c35 -34 68 -61 74 -61 13 0 -25 36 -88 84 -47 36 -46
34 14 -23z"/>
<path d="M2236 11244 c-9 -8 -21 -25 -28 -37 l-11 -22 22 20 c23 19 46 55 37
55 -2 0 -12 -7 -20 -16z"/>
<path d="M4035 11039 c-190 -18 -394 -96 -545 -210 -121 -92 -268 -257 -324
-366 -15 -31 -15 -32 6 -47 12 -9 25 -16 29 -16 3 0 67 -29 140 -64 74 -35
163 -77 199 -94 36 -16 108 -50 160 -75 245 -115 292 -137 298 -137 4 0 27 39
51 86 56 109 141 203 219 240 144 69 356 29 469 -88 65 -66 87 -126 87 -228
-1 -179 -96 -312 -273 -382 -84 -33 -229 -31 -331 4 -41 14 -77 25 -79 23 -2
-2 -11 -28 -21 -57 -10 -29 -53 -152 -95 -273 -42 -121 -85 -244 -95 -272
l-17 -53 36 0 c341 -3 538 -105 617 -320 27 -75 26 -209 -2 -322 -54 -221
-173 -363 -351 -418 -154 -48 -343 0 -459 116 -93 94 -130 206 -133 406 -1 62
-3 113 -4 114 -1 1 -213 30 -472 63 -258 34 -478 63 -489 66 -18 4 -18 -2 -12
-103 17 -254 89 -476 214 -667 59 -90 217 -247 307 -307 235 -155 664 -303
1013 -348 108 -14 328 -15 413 -1 467 76 825 408 951 881 18 70 23 111 23 230
-1 137 -2 150 -32 235 -68 197 -176 327 -372 448 -45 28 -69 48 -60 51 8 3 52
18 99 34 333 114 521 311 581 609 37 187 17 349 -65 518 -134 274 -371 447
-815 595 -319 106 -621 151 -866 129z"/>
<path d="M12015 10935 c28 -28 52 -49 54 -47 9 5 -36 54 -69 75 -31 20 -30 17
15 -28z"/>
<path d="M1795 10250 c-16 -7 -17 -9 -3 -9 9 -1 20 4 23 9 7 11 7 11 -20 0z"/>
<path d="M7426 10129 c-301 -32 -585 -173 -798 -397 -319 -336 -575 -998 -632
-1636 -25 -277 -4 -488 69 -713 137 -417 417 -673 920 -842 376 -126 724 -152
991 -76 482 139 827 605 860 1165 30 513 -294 992 -772 1143 -303 96 -549 74
-847 -75 -90 -45 -88 -52 -35 87 167 434 274 596 448 679 58 28 75 31 155 31
104 0 153 -12 218 -56 92 -60 135 -153 145 -314 l7 -100 170 -22 c293 -40 749
-104 778 -109 l29 -6 -7 69 c-33 339 -134 567 -334 756 -141 133 -303 222
-557 305 -314 104 -559 137 -808 111z m179 -1871 c73 -24 117 -51 172 -109
143 -147 173 -393 81 -664 -44 -130 -84 -202 -153 -271 -144 -146 -337 -178
-523 -87 -110 53 -192 152 -240 285 -45 128 -34 319 29 493 72 198 226 345
395 375 66 11 166 3 239 -22z"/>
<path d="M1780 10063 c-31 -38 -48 -79 -36 -90 9 -9 33 15 61 62 42 73 27 90
-25 28z"/>
<path d="M1332 9916 c-40 -28 -41 -31 -21 -38 20 -8 20 -10 5 -32 -14 -22 -14
-25 0 -30 39 -15 47 -8 41 35 -4 29 -1 49 10 66 23 34 14 34 -35 -1z"/>
<path d="M1719 9888 c-21 -17 -49 -64 -49 -81 0 -8 -7 -28 -16 -45 -8 -18 -13
-36 -10 -41 8 -12 76 -35 83 -27 10 10 33 121 33 164 0 44 -13 53 -41 30z"/>
<path d="M1267 9883 c-4 -3 -7 -13 -7 -22 1 -13 3 -13 11 2 11 19 8 33 -4 20z"/>
<path d="M1470 9874 c0 -8 5 -12 10 -9 6 3 10 10 10 16 0 5 -4 9 -10 9 -5 0
-10 -7 -10 -16z"/>
<path d="M1447 9824 c-4 -4 -7 -14 -7 -23 0 -11 3 -12 11 -4 6 6 10 16 7 23
-2 6 -7 8 -11 4z"/>
<path d="M10555 9293 c-69 -6 -196 -34 -275 -60 -304 -102 -517 -314 -710
-708 -111 -226 -189 -448 -270 -767 -114 -448 -141 -898 -70 -1178 73 -285
244 -535 470 -685 246 -165 603 -279 956 -307 424 -33 733 93 986 402 42 52
83 106 90 120 7 13 35 60 61 105 284 471 481 1238 464 1800 -7 248 -41 388
-140 577 -147 284 -396 475 -781 597 -272 87 -555 124 -781 104z m479 -698
c140 -42 230 -142 271 -300 31 -121 12 -407 -45 -665 -85 -386 -212 -795 -302
-974 -115 -230 -250 -344 -417 -354 -186 -10 -321 86 -383 273 -20 62 -23 88
-22 240 0 212 25 357 124 740 169 653 339 974 551 1040 59 18 163 18 223 0z"/>
<path d="M13486 8124 c-9 -24 5 -164 16 -164 8 0 1 168 -7 178 -1 2 -5 -5 -9
-14z"/>
<path d="M13426 8094 c-10 -26 -7 -51 8 -63 15 -13 26 4 26 39 0 26 -26 45
-34 24z"/>
<path d="M13452 7797 c-14 -17 -26 -266 -13 -285 5 -9 11 26 16 89 4 57 14
121 22 142 14 34 14 40 1 53 -12 13 -16 13 -26 1z"/>
<path d="M13467 7419 c7 -7 15 -10 18 -7 3 3 -2 9 -12 12 -14 6 -15 5 -6 -5z"/>
<path d="M13939 6850 c33 -98 67 -164 108 -210 43 -48 126 -203 138 -257 3
-18 11 -35 16 -38 5 -4 5 3 0 17 -5 13 -12 48 -16 78 -5 40 -22 79 -61 146
-30 50 -64 103 -77 117 -12 15 -37 55 -55 89 -18 35 -42 74 -52 88 -20 25 -20
25 -1 -30z"/>
<path d="M13246 6671 c-4 -7 -5 -15 -2 -18 9 -9 19 4 14 18 -4 11 -6 11 -12 0z"/>
<path d="M730 6589 c0 -16 60 -57 92 -63 32 -6 39 -12 49 -44 6 -21 24 -53 39
-72 l29 -35 146 -3 147 -4 -7 99 c-4 54 -9 101 -12 106 -2 4 -52 7 -111 8 -59
1 -167 4 -240 8 -72 3 -132 3 -132 0z"/>
<path d="M986 6290 c19 -39 53 -91 76 -116 41 -45 43 -45 88 -39 25 4 52 13
61 21 14 13 17 7 22 -68 4 -46 7 -123 7 -173 0 -49 5 -97 10 -105 10 -15 5
233 -4 249 -3 4 -7 69 -10 146 -3 76 -7 139 -8 140 -2 2 -64 6 -139 9 l-137 7
34 -71z"/>
<path d="M1868 6343 c7 -3 16 -2 19 1 4 3 -2 6 -13 5 -11 0 -14 -3 -6 -6z"/>
<path d="M13407 6313 c-4 -3 -7 -11 -7 -17 0 -6 5 -5 12 2 6 6 9 14 7 17 -3 3
-9 2 -12 -2z"/>
<path d="M13330 6264 c0 -8 5 -12 10 -9 6 3 10 10 10 16 0 5 -4 9 -10 9 -5 0
-10 -7 -10 -16z"/>
<path d="M14222 6227 c-1 -32 -6 -67 -12 -77 -5 -10 -10 -39 -10 -64 0 -25 -4
-46 -10 -46 -5 0 -10 -7 -10 -14 0 -8 -12 -21 -27 -28 -22 -11 -29 -23 -36
-63 -5 -27 -15 -58 -24 -67 -9 -10 -13 -25 -9 -35 6 -15 8 -15 17 -3 8 13 10
13 18 0 13 -19 4 -32 -17 -26 -24 8 -69 -34 -67 -62 1 -13 -11 -39 -27 -59
-24 -30 -28 -45 -28 -95 0 -63 -29 -138 -53 -138 -8 0 -24 -11 -37 -25 -13
-14 -27 -25 -32 -25 -4 0 -17 -8 -27 -17 -11 -10 -26 -23 -33 -29 -7 -5 -20
-21 -29 -34 -16 -24 -26 -24 -65 5 -19 14 -23 13 -48 -12 -20 -20 -24 -28 -14
-35 10 -6 9 -8 -4 -8 -9 0 -28 -13 -41 -30 -14 -16 -32 -30 -41 -30 -8 0 -16
-5 -18 -12 -3 -9 -15 -7 -46 5 -23 9 -49 14 -58 10 -14 -5 -16 -2 -11 16 4 18
1 24 -14 28 -11 3 -19 10 -18 17 3 25 -2 36 -15 36 -22 0 -31 87 -12 109 20
22 20 31 1 31 -12 0 -14 7 -9 28 4 15 11 29 16 30 17 7 7 20 -11 15 -24 -6
-36 13 -21 32 9 11 9 15 1 15 -6 0 -11 9 -11 21 0 12 4 17 11 13 8 -4 9 1 3
17 -4 13 -8 40 -9 60 -2 20 -6 43 -11 50 -5 8 -10 23 -11 34 -2 11 -10 23 -18
28 -20 11 -19 19 5 47 27 31 25 43 -5 36 -22 -6 -25 -3 -25 19 0 25 14 34 24
16 3 -5 15 -7 26 -4 16 4 18 8 9 20 -7 8 -18 12 -24 9 -7 -2 -18 1 -24 7 -13
13 -15 67 -3 67 5 0 17 7 28 15 17 13 14 14 -41 14 -33 0 -54 -3 -47 -6 6 -2
12 -11 12 -18 0 -7 6 -16 13 -18 7 -3 5 -6 -5 -6 -14 -1 -16 -7 -11 -33 3 -18
11 -36 17 -40 7 -5 4 -8 -6 -8 -11 0 -15 -5 -12 -15 4 -8 1 -15 -6 -15 -7 0
-10 -8 -8 -18 3 -10 0 -23 -6 -29 -34 -36 -40 -49 -37 -85 1 -21 -3 -38 -9
-38 -5 0 -10 -6 -10 -14 0 -14 -50 -48 -89 -61 -16 -5 -21 -2 -21 11 0 35 -10
6 -15 -44 -3 -31 -1 -52 5 -52 6 0 10 -6 10 -14 0 -8 5 -16 10 -18 11 -3 -40
-68 -53 -68 -7 0 -36 -23 -63 -48 -7 -7 -17 -13 -21 -12 -4 0 -8 -8 -9 -18 -1
-34 -32 -90 -53 -97 -12 -3 -21 -10 -21 -15 0 -4 -9 -6 -20 -3 -15 4 -20 0
-20 -16 0 -11 -4 -21 -10 -21 -5 0 -10 -6 -10 -13 0 -7 -14 -29 -31 -50 l-31
-38 17 -41 c14 -36 14 -40 1 -29 -17 14 -19 11 -16 -32 1 -18 -3 -27 -12 -25
-9 2 -12 -6 -10 -24 1 -16 -8 -44 -23 -68 -25 -39 -47 -50 -60 -30 -3 6 -1 10
4 10 6 0 11 7 11 15 0 20 -17 19 -29 -2 -5 -10 -13 -15 -17 -11 -4 4 -2 14 5
21 6 8 9 21 5 30 -3 8 -1 18 5 22 17 10 13 22 -10 28 -13 3 -19 1 -16 -6 2 -7
-2 -28 -10 -47 -8 -19 -14 -36 -14 -37 4 -15 -2 -23 -14 -23 -8 0 -24 -13 -37
-30 -12 -16 -28 -30 -35 -30 -7 0 -13 -9 -13 -20 0 -25 -71 -92 -84 -79 -16
14 -26 11 -26 -10 0 -10 -8 -25 -17 -32 -9 -8 -14 -9 -10 -3 4 7 1 16 -6 22
-15 13 -77 -31 -77 -55 0 -9 -6 -13 -14 -10 -8 3 -18 -5 -25 -19 -6 -13 -15
-24 -21 -24 -6 0 -10 -6 -9 -12 3 -20 -22 -79 -31 -73 -10 6 -70 -70 -70 -89
0 -18 -66 -82 -92 -91 -10 -4 -18 -13 -18 -21 0 -8 -4 -14 -10 -14 -5 0 -10
-12 -10 -27 0 -16 -7 -36 -14 -46 -14 -18 -14 -18 -19 0 -4 17 -5 17 -6 -1 -1
-14 -6 -17 -23 -13 -12 4 -29 1 -37 -6 -12 -10 -13 -8 -9 17 8 38 -22 75 -41
52 -7 -8 -19 -12 -26 -10 -10 4 -12 0 -8 -15 4 -16 1 -19 -16 -14 -14 4 -26
-1 -35 -12 -7 -10 -18 -15 -24 -11 -6 4 -20 1 -31 -5 -15 -10 -22 -9 -36 4
-21 21 -35 22 -35 1 0 -9 -8 -18 -18 -21 -10 -2 -23 -18 -30 -35 -6 -16 -15
-27 -20 -25 -4 3 -25 2 -45 -3 -20 -4 -37 -4 -37 0 0 5 -9 6 -20 3 -14 -4 -20
0 -20 11 0 26 -27 18 -32 -9 -3 -13 -1 -22 3 -19 5 3 9 0 9 -5 0 -6 -7 -11
-15 -11 -8 0 -15 -7 -15 -15 0 -8 -6 -15 -14 -15 -7 0 -19 -7 -26 -15 -7 -9
-15 -13 -18 -11 -9 10 -62 -25 -62 -40 0 -12 -4 -14 -12 -7 -23 17 -57 13 -64
-9 -4 -14 -9 -17 -17 -9 -16 16 -24 14 -30 -9 -4 -17 -11 -19 -31 -14 -25 6
-62 -16 -49 -30 4 -3 2 -6 -3 -6 -6 0 -15 5 -22 12 -13 13 -42 -6 -42 -28 0
-8 -4 -14 -10 -14 -5 0 -10 -7 -10 -15 0 -8 -9 -20 -20 -27 -11 -7 -20 -21
-20 -31 0 -18 -5 -21 -52 -31 -16 -4 -28 -13 -28 -20 0 -10 -15 -14 -55 -14
-31 1 -58 -2 -62 -5 -3 -4 -18 -4 -32 0 -25 6 -25 6 -9 -19 16 -25 16 -26 -2
-31 -11 -3 -18 -1 -15 3 3 5 1 11 -5 15 -6 4 -7 11 -4 17 4 6 1 9 -7 6 -8 -3
-18 -19 -23 -37 -7 -25 -14 -31 -28 -28 -20 6 -34 -8 -18 -18 11 -7 -30 -45
-48 -45 -15 0 -72 -34 -72 -42 0 -5 -7 -8 -15 -8 -8 0 -15 4 -15 9 0 6 -12 3
-27 -5 -16 -7 -34 -14 -40 -14 -7 0 -13 -7 -13 -15 0 -8 -4 -15 -9 -15 -5 0
-7 8 -4 19 4 15 -3 20 -34 28 -36 8 -40 6 -80 -31 -23 -22 -40 -43 -38 -46 3
-4 -6 -5 -20 -3 -13 3 -48 -6 -79 -20 -30 -14 -63 -24 -73 -22 -10 1 -24 -2
-30 -7 -7 -6 -22 -8 -33 -5 -11 3 -18 0 -17 -6 3 -15 -59 -30 -120 -29 -29 0
-53 -3 -53 -8 0 -4 -12 -11 -26 -14 -20 -5 -30 -2 -41 14 -9 12 -25 20 -43 20
-15 0 -31 6 -34 13 -5 9 -7 9 -12 -2 -4 -7 -14 -20 -24 -28 -61 -52 -70 -63
-63 -80 5 -15 2 -14 -19 5 -25 23 -53 29 -62 13 -7 -10 -20 -9 -50 4 -13 6
-21 4 -24 -3 -5 -15 -16 -15 -65 -1 -21 5 -35 15 -31 20 3 5 0 16 -6 24 -10
12 -9 15 4 15 9 0 16 4 16 10 0 5 -6 7 -14 4 -8 -3 -17 -1 -21 5 -3 6 1 14 9
17 24 9 19 27 -6 21 -12 -4 -34 1 -50 11 -23 13 -30 14 -40 3 -10 -11 -10 -14
0 -18 19 -7 14 -29 -10 -46 -18 -13 -20 -16 -6 -16 21 -1 28 -21 16 -43 -6
-13 -5 -18 7 -18 8 0 15 -7 15 -15 0 -9 10 -15 23 -16 15 -1 11 -4 -15 -11
-31 -8 -39 -7 -57 11 -27 27 -45 28 -31 1 9 -18 8 -20 -14 -20 -14 0 -45 6
-68 14 -24 8 -63 16 -88 18 -36 2 -45 -1 -48 -15 -2 -9 -7 -17 -11 -17 -4 0
-7 -10 -7 -22 1 -16 -5 -24 -21 -26 -23 -3 -54 -32 -34 -32 6 0 11 -5 11 -12
0 -6 -11 -1 -25 12 -13 12 -24 25 -23 29 1 3 -2 14 -7 25 -6 13 -3 21 8 28 23
12 21 25 -3 31 -13 3 -20 0 -20 -10 0 -8 -4 -12 -9 -9 -5 4 -7 -3 -4 -14 6
-21 -3 -25 -26 -11 -7 5 -11 13 -7 19 12 19 -22 35 -61 27 -21 -4 -42 -10 -48
-14 -5 -4 -18 -11 -28 -14 -13 -5 -17 -2 -15 10 2 10 -9 23 -27 32 -16 9 -34
21 -40 28 -13 14 -83 24 -91 12 -3 -5 -14 -9 -24 -9 -14 0 -23 -12 -31 -42
-13 -45 -29 -72 -29 -48 0 9 -10 4 -27 -12 -25 -24 -36 -27 -96 -26 -63 0
-100 -12 -84 -28 10 -11 119 -7 150 5 32 12 59 4 34 -10 -9 -6 -13 -17 -10
-29 3 -11 0 -20 -6 -20 -6 0 -11 -9 -11 -21 0 -11 -4 -17 -10 -14 -5 3 -10 16
-10 27 0 18 -4 20 -37 15 -72 -11 -87 -17 -107 -42 -22 -26 -88 -37 -116 -20
-8 5 -22 8 -32 7 -9 -2 -19 2 -23 7 -3 6 -20 8 -37 4 -24 -5 -29 -3 -23 7 5 8
-4 6 -26 -5 -19 -10 -47 -25 -62 -33 -18 -9 -43 -12 -65 -9 -21 3 -31 3 -24 0
10 -4 9 -8 -4 -17 -15 -12 -15 -13 0 -19 10 -4 16 -1 16 8 0 8 5 15 11 15 6 0
9 -8 7 -17 -2 -12 -19 -21 -50 -28 -26 -5 -57 -18 -68 -27 -26 -23 -30 -23
-27 5 2 20 -3 22 -48 25 -27 2 -55 8 -62 14 -9 7 -13 7 -13 -1 0 -6 -5 -11
-11 -11 -5 0 -8 4 -5 9 9 14 -4 41 -20 41 -8 0 -14 9 -14 21 0 11 -14 38 -31
59 l-31 39 21 22 c19 21 22 21 39 6 22 -20 32 -22 32 -4 0 14 58 43 78 39 7
-2 15 5 19 14 3 9 17 28 30 42 21 22 27 24 44 14 27 -17 25 5 -5 42 -17 21
-30 27 -45 23 -12 -3 -24 -1 -27 4 -3 6 15 9 45 7 28 -2 51 -6 51 -10 0 -4 7
-5 15 -2 8 4 15 14 15 24 0 11 12 22 30 29 17 5 30 14 30 18 0 15 -83 13 -107
-3 -26 -16 -43 -11 -43 13 0 13 -9 15 -50 11 -28 -3 -58 -12 -68 -22 -10 -9
-31 -16 -47 -16 -25 0 -27 -2 -21 -30 4 -22 2 -30 -9 -30 -7 0 -17 5 -20 10
-3 6 -17 10 -31 10 -15 0 -23 -4 -19 -10 4 -6 1 -17 -5 -25 -9 -11 -9 -15 -1
-15 6 0 11 -7 11 -15 0 -10 -8 -7 -26 10 -29 27 -69 33 -77 13 -4 -10 -8 -10
-15 1 -7 9 -12 10 -16 2 -4 -6 -17 -11 -29 -11 -12 0 -28 -9 -35 -20 -11 -18
-10 -20 8 -20 11 0 20 5 20 10 0 6 12 10 26 10 14 0 22 -4 19 -10 -3 -5 6 -12
21 -16 16 -4 29 -2 34 6 4 7 16 9 29 5 17 -5 21 -14 21 -46 0 -21 -5 -39 -10
-39 -6 0 -8 -11 -4 -25 4 -18 2 -25 -9 -25 -8 0 -17 -9 -20 -21 -3 -12 -10
-18 -16 -14 -7 3 -8 0 -5 -10 5 -11 2 -14 -12 -9 -20 7 -44 32 -44 46 0 4 10
8 22 8 16 0 19 3 11 11 -17 17 -53 1 -53 -23 0 -20 -2 -19 -24 7 -17 20 -29
25 -45 20 -12 -4 -21 -2 -21 4 0 11 16 14 63 11 19 -1 27 3 27 14 0 18 -20 20
-94 10 -37 -6 -44 -9 -35 -20 9 -11 5 -16 -15 -24 -15 -5 -36 -9 -49 -7 -18 2
-22 -3 -24 -30 -2 -48 -25 -66 -84 -66 -27 0 -52 -4 -55 -9 -7 -12 -24 10 -24
30 0 9 7 11 22 7 18 -6 20 -4 13 11 -4 11 -9 28 -10 39 -3 32 -16 55 -31 55
-8 0 -14 5 -14 12 0 6 -9 3 -20 -7 -11 -10 -19 -23 -18 -29 2 -6 -7 -21 -20
-34 -24 -24 -28 -16 -10 23 10 22 9 28 -3 36 -22 14 -34 5 -31 -24 2 -18 -3
-29 -17 -36 -27 -15 -41 -14 -41 3 0 17 -52 28 -62 13 -4 -7 -11 -12 -15 -13
-4 0 -16 -4 -26 -8 -9 -5 -26 -6 -36 -3 -13 3 -18 0 -14 -8 6 -16 -27 -35 -61
-35 -14 0 -26 -4 -26 -10 0 -5 4 -10 8 -10 4 0 8 -9 8 -20 0 -11 -4 -20 -9
-20 -5 0 -7 -7 -3 -15 4 -12 2 -13 -14 -3 -15 10 -22 10 -32 0 -10 -10 -10
-15 2 -22 12 -8 10 -10 -7 -10 -13 0 -32 -9 -43 -20 -17 -17 -28 -19 -63 -14
-23 4 -43 11 -45 16 -2 4 -16 8 -32 8 -15 0 -30 6 -33 14 -9 24 -131 13 -202
-19 -33 -14 -68 -24 -77 -22 -12 4 -17 0 -15 -12 1 -9 -2 -16 -8 -16 -5 0 -9
5 -7 11 4 19 -30 26 -48 9 -24 -22 -86 -20 -92 3 -3 11 -16 18 -33 20 -16 1
-36 9 -46 18 -11 10 -19 12 -24 5 -3 -6 -19 -11 -35 -11 -15 0 -30 -7 -34 -15
-3 -8 -15 -15 -26 -15 -11 0 -20 -4 -20 -10 0 -5 -7 -10 -15 -10 -8 0 -15 -9
-15 -20 0 -20 -1 -20 -31 -4 -26 13 -33 14 -40 2 -6 -9 -9 -9 -9 -1 0 10 -21
22 -52 29 -5 1 -11 3 -15 4 -5 2 -30 3 -58 4 -38 1 -53 -3 -64 -17 -7 -10 -20
-16 -28 -13 -8 3 -24 1 -35 -5 -18 -9 -24 -8 -35 7 -18 25 -16 35 7 41 21 6
30 53 10 53 -6 0 -20 11 -32 25 -19 22 -26 24 -94 20 -40 -2 -82 -8 -93 -14
-26 -15 -38 -14 -23 1 17 17 15 28 -4 28 -8 0 -13 -4 -10 -9 3 -5 -1 -12 -9
-15 -13 -5 -14 -10 -5 -27 14 -25 14 -25 -34 -32 -36 -6 -38 -5 -34 18 4 17
-1 26 -19 34 -13 6 -30 11 -38 11 -9 0 -15 10 -15 25 0 18 5 25 20 25 15 0 20
7 20 25 0 14 5 25 11 25 6 0 9 6 6 13 -2 6 -12 11 -22 9 -13 -3 -16 1 -12 12
5 12 0 16 -16 16 -13 0 -28 5 -35 12 -17 17 -27 1 -11 -19 12 -14 12 -16 0 -8
-11 6 -13 4 -7 -11 5 -10 9 -24 9 -31 0 -6 6 -9 14 -6 20 8 16 -43 -4 -52 -18
-7 -68 -20 -128 -31 -40 -8 -103 -8 -142 1 -41 9 -83 -1 -83 -20 0 -7 -5 -17
-11 -21 -9 -5 -10 1 -5 21 6 25 5 27 -8 16 -9 -7 -24 -10 -36 -6 -15 5 -29 0
-46 -16 -13 -12 -27 -20 -30 -16 -9 8 5 27 20 27 8 0 16 10 19 21 4 15 11 20
23 15 14 -5 15 -4 4 9 -15 18 -48 11 -67 -12 -10 -13 -15 -14 -28 -3 -8 7 -15
19 -15 26 0 8 -7 14 -16 14 -10 0 -14 -6 -10 -15 6 -16 -9 -21 -18 -6 -3 5
-22 11 -41 13 -31 4 -35 1 -35 -19 0 -34 -45 -32 -54 2 -4 14 -4 30 -1 35 4 6
-1 10 -10 10 -10 0 -14 5 -10 13 4 6 -2 1 -14 -13 -18 -22 -20 -23 -26 -7 -4
9 -15 17 -25 17 -9 0 -28 8 -41 19 -13 10 -44 21 -69 24 -25 3 -50 13 -57 23
-10 14 -15 15 -27 5 -11 -10 -19 -9 -34 0 -15 9 -27 10 -43 3 -14 -6 -42 -7
-73 -2 -28 4 -53 4 -56 0 -8 -11 -54 -6 -58 7 -2 6 -10 11 -18 11 -9 0 -13 -4
-10 -8 2 -4 1 -14 -5 -22 -5 -9 -9 -10 -9 -3 0 6 -8 11 -18 10 -10 0 -35 7
-56 17 -21 10 -46 16 -57 13 -14 -4 -19 0 -20 16 0 21 -1 21 -9 2 -9 -19 -9
-19 -16 3 -3 12 -14 22 -24 22 -10 0 -23 7 -30 15 -7 8 -10 15 -6 15 3 0 -3 9
-15 21 -12 12 -27 18 -36 15 -10 -4 -24 2 -36 15 l-20 22 -8 -22 c-9 -24 -29
-28 -29 -6 0 8 -4 15 -10 15 -5 0 -10 -5 -10 -11 0 -17 -60 -2 -85 21 -12 11
-29 20 -38 20 -9 0 -19 5 -23 11 -3 6 -19 9 -34 5 -35 -6 -45 3 -22 20 16 13
15 15 -8 34 -23 18 -23 20 -5 20 19 1 18 2 -2 12 -13 6 -23 17 -23 25 0 7 -10
13 -22 13 -19 0 -20 2 -8 10 13 9 13 11 0 20 -13 9 -12 13 9 30 35 30 21 53
-29 48 -22 -2 -40 0 -40 4 0 4 -9 12 -21 18 -16 9 -27 7 -55 -9 -44 -26 -57
-26 -49 -1 5 14 2 20 -9 20 -9 0 -16 -5 -16 -11 0 -5 -4 -7 -10 -4 -17 10 -11
25 13 35 12 5 16 9 8 9 -11 1 -11 4 -1 16 11 13 8 15 -15 15 -22 0 -26 4 -22
20 4 14 -3 23 -24 32 -16 7 -29 17 -29 22 0 4 -6 3 -14 -3 -20 -17 -43 13 -26
34 11 13 10 14 -11 6 -17 -6 -23 -15 -21 -30 3 -17 -2 -21 -27 -21 -26 0 -29
-3 -25 -25 2 -14 0 -25 -6 -25 -5 0 -10 8 -10 18 -1 26 -32 60 -60 64 -14 2
-25 10 -25 18 0 8 -7 15 -15 15 -8 0 -15 -8 -15 -17 0 -10 -4 -17 -10 -17 -5
1 -9 6 -7 12 2 6 0 22 -3 36 -5 20 -8 22 -16 10 -8 -10 -9 -8 -4 9 4 15 2 24
-9 27 -9 3 -23 7 -31 10 -11 3 -13 10 -5 30 9 24 8 25 -15 19 -18 -4 -27 -1
-31 10 -3 9 -12 16 -20 16 -12 0 -49 70 -119 225 -16 35 -25 64 -22 68 1 2 -6
11 -16 21 -9 10 -17 24 -17 32 0 9 -10 30 -23 47 -27 37 -53 114 -60 175 -3
24 -12 51 -21 61 -9 10 -16 29 -16 43 0 14 -7 42 -15 62 -9 20 -13 41 -10 45
3 5 -1 11 -9 14 -8 3 -17 25 -21 49 -11 71 -27 117 -47 134 -10 10 -18 28 -18
40 0 13 -10 40 -21 61 -12 21 -32 76 -45 122 -13 46 -30 91 -38 100 -13 13
-13 4 3 -54 11 -39 35 -131 55 -205 20 -74 57 -189 82 -255 25 -66 74 -203
109 -305 34 -102 71 -204 82 -225 58 -118 169 -322 264 -486 60 -103 131 -240
160 -305 54 -124 175 -336 264 -460 75 -104 155 -174 260 -227 92 -46 158
-104 236 -207 19 -25 65 -78 103 -117 53 -56 81 -77 124 -93 31 -12 70 -33 87
-48 39 -34 115 -87 180 -127 28 -17 84 -59 125 -94 75 -63 101 -77 196 -111
28 -10 116 -63 195 -118 129 -88 156 -103 250 -131 99 -31 181 -70 260 -124
21 -14 48 -28 60 -32 13 -4 58 -23 99 -43 170 -79 205 -93 293 -112 51 -12
108 -27 127 -35 19 -7 78 -23 130 -35 52 -12 120 -30 150 -41 30 -11 84 -23
120 -28 78 -11 195 -37 230 -51 14 -6 48 -15 75 -20 75 -14 191 -37 270 -54
195 -42 251 -49 465 -57 138 -5 250 -14 290 -23 50 -12 145 -16 410 -18 380
-3 505 7 600 47 30 13 91 28 135 34 91 11 159 25 201 42 43 16 143 29 294 38
131 8 210 26 295 66 17 8 79 24 138 35 59 11 116 24 125 29 9 4 72 21 140 37
119 28 122 29 122 55 0 58 3 59 122 59 86 0 118 4 151 19 42 19 94 34 244 70
45 11 110 32 145 46 158 67 288 119 343 139 33 12 144 69 246 129 102 59 193
107 201 107 9 0 60 25 113 55 l97 54 66 -33 c39 -19 90 -36 122 -39 47 -6 62
-3 106 21 32 16 70 49 98 84 l46 57 0 84 0 84 43 39 c23 22 79 58 124 82 45
23 92 55 105 70 13 15 51 51 85 79 74 61 303 289 388 385 33 38 69 71 79 74
26 9 186 164 186 180 0 8 11 16 25 20 25 6 67 67 128 190 16 32 40 60 61 73
20 12 43 40 54 65 12 24 35 56 53 72 59 52 93 90 164 178 75 93 108 150 120
204 4 19 27 56 51 83 24 27 44 58 44 69 0 10 15 38 33 62 17 24 44 62 59 85
15 23 53 69 84 102 42 46 65 62 93 67 65 12 81 25 159 126 46 61 60 68 198
117 96 34 164 82 235 166 19 22 40 44 47 48 19 13 57 94 86 185 23 74 26 99
26 236 0 84 5 167 10 183 10 28 15 31 72 37 69 7 122 36 137 76 5 14 15 81 22
150 6 69 16 130 21 136 23 31 19 109 -10 194 l-29 85 -1 -58z m-1150 -672 c0
-5 -5 -11 -11 -13 -6 -2 -11 4 -11 13 0 9 5 15 11 13 6 -2 11 -8 11 -13z
m-878 -1040 c-4 -8 -8 -15 -10 -15 -2 0 -4 7 -4 15 0 8 4 15 10 15 5 0 7 -7 4
-15z m26 -40 c-7 -9 -15 -13 -17 -11 -7 7 7 26 19 26 6 0 6 -6 -2 -15z m40
-26 c0 -17 -4 -28 -10 -24 -5 3 -10 17 -10 31 0 13 5 24 10 24 6 0 10 -14 10
-31z m-10148 -671 c-6 -6 -16 -7 -22 -3 -9 6 -9 9 1 16 17 10 34 0 21 -13z
m-87 0 c5 4 5 1 1 -5 -5 -9 -1 -13 11 -13 15 0 15 -2 3 -9 -17 -12 -26 -7 -42
22 -10 19 -9 20 4 10 8 -7 19 -9 23 -5z m85 -26 c0 -13 -12 -22 -22 -16 -10 6
-1 24 13 24 5 0 9 -4 9 -8z m171 -27 c5 4 9 1 9 -5 0 -7 -7 -9 -16 -6 -13 5
-15 2 -11 -15 7 -26 -1 -49 -18 -49 -9 0 -12 11 -8 40 5 34 3 40 -13 40 -17 0
-17 1 1 14 17 12 21 12 33 -5 7 -11 18 -17 23 -14z m37 -63 c2 -7 -3 -12 -11
-12 -9 0 -18 -6 -20 -12 -3 -7 -6 -4 -6 8 -1 34 27 46 37 16z m182 -37 c0 -8
-4 -15 -10 -15 -5 0 -10 7 -10 15 0 8 5 15 10 15 6 0 10 -7 10 -15z m-127 -35
c-5 -19 -7 -19 -22 -6 -13 12 -20 13 -29 4 -7 -7 -12 -8 -12 -2 0 17 12 24 41
24 22 0 26 -4 22 -20z m37 0 c0 -5 -4 -10 -10 -10 -5 0 -10 5 -10 10 0 6 5 10
10 10 6 0 10 -4 10 -10z m90 -5 c10 -12 10 -15 -4 -15 -9 0 -16 7 -16 15 0 8
2 15 4 15 2 0 9 -7 16 -15z m7867 -71 c-3 -3 -12 -4 -19 -1 -8 3 -5 6 6 6 11
1 17 -2 13 -5z m-7867 -54 c0 -5 -4 -10 -10 -10 -5 0 -10 5 -10 10 0 6 5 10
10 10 6 0 10 -4 10 -10z m70 -50 c-9 -6 -6 -10 9 -15 35 -11 54 -35 40 -51
-21 -26 -81 -5 -71 24 2 7 -5 21 -17 31 -13 12 -18 25 -14 39 l5 22 30 -21
c21 -15 26 -24 18 -29z m6608 -47 c0 -25 -1 -25 -14 -8 -13 18 -11 35 5 35 5
0 9 -12 9 -27z m-1888 -33 c0 -5 -4 -10 -10 -10 -5 0 -10 5 -10 10 0 6 5 10
10 10 6 0 10 -4 10 -10z m1909 -26 c2 -2 2 -7 -2 -10 -8 -9 -47 6 -47 17 0 9
37 3 49 -7z m481 0 c0 -8 -4 -12 -10 -9 -5 3 -10 10 -10 16 0 5 5 9 10 9 6 0
10 -7 10 -16z m-426 -23 c8 -12 -21 -34 -34 -26 -8 5 -8 11 1 21 13 16 25 18
33 5z m-679 -31 c-3 -5 -11 -10 -16 -10 -6 0 -7 5 -4 10 3 6 11 10 16 10 6 0
7 -4 4 -10z m55 0 c0 -5 -4 -10 -10 -10 -5 0 -10 5 -10 10 0 6 5 10 10 10 6 0
10 -4 10 -10z m-5644 -55 c3 -19 3 -43 -1 -52 -6 -17 -7 -17 -21 1 -14 20 -19
68 -7 79 14 14 22 6 29 -28z m4314 9 c0 -22 -2 -24 -15 -14 -8 6 -19 9 -25 5
-13 -8 -9 17 5 27 20 15 35 7 35 -18z m-4240 0 c0 -8 -4 -12 -10 -9 -5 3 -10
10 -10 16 0 5 5 9 10 9 6 0 10 -7 10 -16z m5205 6 c3 -5 1 -10 -4 -10 -6 0
-11 5 -11 10 0 6 2 10 4 10 3 0 8 -4 11 -10z m435 -27 c0 -7 -9 -13 -20 -13
-19 0 -26 11 -15 22 10 10 35 4 35 -9z m-66 -19 c28 -11 17 -23 -19 -22 -34 1
-42 7 -28 21 8 9 27 9 47 1z m-358 -38 c9 -10 11 -17 4 -21 -17 -11 -40 3 -34
20 8 19 12 19 30 1z m220 -21 c-5 -14 -9 -15 -21 -5 -12 10 -13 16 -4 27 15
18 34 1 25 -22z m-5458 4 c-2 -6 -8 -10 -13 -10 -5 0 -11 4 -13 10 -2 6 4 11
13 11 9 0 15 -5 13 -11z m3672 1 c0 -5 -8 -10 -19 -10 -10 0 -24 -7 -31 -15
-7 -8 -21 -15 -31 -15 -11 0 -19 7 -19 15 0 9 9 15 24 15 14 0 28 5 31 10 3 6
15 10 26 10 10 0 19 -4 19 -10z m-119 -13 c-1 -4 -3 -7 -6 -7 -40 0 -40 0 -25
10 16 10 32 9 31 -3z m1517 -18 c-2 -6 -8 -10 -13 -10 -5 0 -11 4 -13 10 -2 6
4 11 13 11 9 0 15 -5 13 -11z m190 -34 c-9 -9 -30 14 -23 25 6 9 10 8 17 -4 6
-10 8 -19 6 -21z m-4642 -12 c-10 -10 -19 5 -10 18 6 11 8 11 12 0 2 -7 1 -15
-2 -18z m2904 17 c0 -5 -4 -10 -10 -10 -5 0 -10 5 -10 10 0 6 5 10 10 10 6 0
10 -4 10 -10z m-2850 -14 c0 -11 -19 -15 -25 -6 -3 5 1 10 9 10 9 0 16 -2 16
-4z m314 -17 c-3 -5 -10 -7 -15 -3 -5 3 -7 10 -3 15 3 5 10 7 15 3 5 -3 7 -10
3 -15z m2571 1 c-3 -5 -10 -10 -16 -10 -5 0 -9 5 -9 10 0 6 7 10 16 10 8 0 12
-4 9 -10z m65 -4 c0 -3 -4 -8 -10 -11 -5 -3 -10 -1 -10 4 0 6 5 11 10 11 6 0
10 -2 10 -4z m-2528 -28 c-7 -7 -12 -8 -12 -2 0 6 3 14 7 17 3 4 9 5 12 2 2
-3 -1 -11 -7 -17z m2105 -45 c-9 -9 -20 -13 -24 -9 -4 4 -1 11 7 16 25 16 35
11 17 -7z m-850 -55 c-3 -8 -6 -5 -6 6 -1 11 2 17 5 13 3 -3 4 -12 1 -19z
m-497 -2 c0 -3 -4 -8 -10 -11 -5 -3 -10 -1 -10 4 0 6 5 11 10 11 6 0 10 -2 10
-4z"/>
<path d="M13276 6196 c-17 -19 -21 -33 -18 -60 3 -22 0 -36 -7 -36 -6 0 -8 -7
-5 -15 4 -8 15 -15 25 -15 10 0 19 7 19 15 0 8 5 15 10 15 6 0 10 -4 10 -9 0
-5 9 -11 20 -14 25 -7 28 21 3 30 -35 13 -38 49 -7 81 8 7 12 18 9 23 -11 16
-35 10 -59 -15z"/>
<path d="M13050 5960 c0 -11 2 -20 4 -20 2 0 6 9 9 20 3 11 1 20 -4 20 -5 0
-9 -9 -9 -20z"/>
<path d="M1321 5420 c0 -8 6 -28 14 -45 13 -30 13 -30 14 -4 1 14 -6 34 -14
45 -11 14 -14 15 -14 4z"/>
<path d="M11750 4590 c0 -5 5 -10 10 -10 6 0 10 5 10 10 0 6 -4 10 -10 10 -5
0 -10 -4 -10 -10z"/>
<path d="M11800 4476 c0 -13 -3 -31 -6 -40 -3 -9 -1 -16 5 -16 6 0 11 8 11 18
0 10 5 23 12 30 9 9 9 12 -2 12 -13 0 -13 2 0 10 13 8 12 10 -2 10 -12 0 -18
-8 -18 -24z"/>
<path d="M11881 4488 c0 -7 4 -22 9 -33 7 -17 9 -15 9 13 1 17 -3 32 -9 32 -5
0 -10 -6 -9 -12z"/>
<path d="M11854 4418 c2 -14 11 -24 24 -26 28 -4 30 23 3 38 -28 14 -31 13
-27 -12z"/>
<path d="M11834 4366 c-10 -25 1 -29 33 -12 15 8 23 15 16 16 -6 0 -18 3 -27
6 -10 4 -18 0 -22 -10z"/>
<path d="M2124 3962 c-10 -15 -8 -21 7 -30 10 -7 16 -18 13 -27 -4 -10 3 -18
19 -24 13 -5 27 -17 30 -25 9 -23 30 -20 22 3 -3 11 -1 22 5 26 17 10 12 38
-5 31 -9 -3 -18 1 -21 9 -4 8 -11 15 -16 15 -5 0 -17 9 -26 20 -16 20 -17 20
-28 2z"/>
<path d="M2440 3704 c-14 -7 -20 -14 -15 -14 6 0 3 -4 -5 -10 -8 -5 -11 -12
-8 -16 10 -9 60 5 53 16 -3 5 -1 11 5 15 12 7 14 25 3 24 -5 -1 -19 -7 -33
-15z"/>
<path d="M2817 3686 c-4 -9 -2 -16 4 -16 5 0 15 -11 21 -25 6 -14 18 -24 26
-23 8 2 17 -3 19 -9 3 -7 -2 -13 -11 -13 -10 0 -13 -6 -9 -17 4 -11 8 -13 11
-5 2 7 8 9 14 6 15 -10 77 27 71 43 -3 7 2 13 11 13 9 0 16 3 16 8 -1 12 -80
44 -95 38 -8 -3 -17 -1 -21 5 -4 6 -11 6 -21 -2 -11 -10 -16 -10 -22 0 -6 10
-10 9 -14 -3z"/>
<path d="M2980 3590 c20 -13 33 -13 25 0 -3 6 -14 10 -23 10 -15 0 -15 -2 -2
-10z"/>
<path d="M2661 3574 c0 -11 3 -14 6 -6 3 7 2 16 -1 19 -3 4 -6 -2 -5 -13z"/>
<path d="M2610 3541 c0 -11 25 -21 51 -21 20 0 26 15 10 24 -5 4 -11 0 -14 -6
-3 -11 -9 -11 -26 0 -11 7 -21 8 -21 3z"/>
<path d="M2858 3534 c-3 -3 -4 -14 -1 -24 6 -21 33 -36 33 -17 -1 16 -26 48
-32 41z"/>
<path d="M2730 3515 c0 -8 7 -15 16 -15 14 0 14 3 4 15 -7 8 -14 15 -16 15 -2
0 -4 -7 -4 -15z"/>
<path d="M7716 3513 c-3 -7 -12 -13 -20 -13 -7 0 -16 -6 -19 -14 -3 -8 -15
-16 -27 -18 -28 -4 -26 -22 3 -23 15 0 21 -5 18 -15 -13 -48 -12 -67 3 -73 13
-5 15 -2 11 16 -5 18 0 26 19 37 29 15 51 4 23 -11 -9 -6 -17 -14 -17 -19 0
-11 28 -6 42 8 7 7 17 12 23 12 5 0 18 12 29 26 l19 26 -32 -7 c-26 -6 -31 -4
-31 13 0 11 9 22 19 25 13 3 19 13 18 26 -1 18 -7 21 -39 19 -20 -1 -40 -8
-42 -15z m15 -33 c5 0 9 -9 9 -21 0 -19 -1 -19 -16 -5 -8 9 -20 16 -25 16 -5
0 -9 5 -9 11 0 6 7 8 16 5 9 -3 20 -6 25 -6z"/>
<path d="M2910 3500 c-8 -5 -11 -12 -7 -16 4 -4 13 -2 19 4 15 15 7 24 -12 12z"/>
<path d="M2795 3490 c3 -5 8 -10 11 -10 2 0 4 5 4 10 0 6 -5 10 -11 10 -5 0
-7 -4 -4 -10z"/>
<path d="M9158 3443 c7 -3 16 -2 19 1 4 3 -2 6 -13 5 -11 0 -14 -3 -6 -6z"/>
<path d="M9598 3403 c7 -3 16 -2 19 1 4 3 -2 6 -13 5 -11 0 -14 -3 -6 -6z"/>
<path d="M7205 3360 c-3 -5 -1 -10 4 -10 6 0 11 5 11 10 0 6 -2 10 -4 10 -3 0
-8 -4 -11 -10z"/>
<path d="M8626 3343 c-6 -15 -8 -15 -16 -3 -7 12 -12 12 -22 2 -6 -6 -22 -12
-34 -12 -12 0 -24 -6 -27 -13 -3 -9 10 -11 58 -7 53 4 65 2 74 -12 17 -27 32
-22 25 8 -5 19 -3 25 4 20 8 -5 10 -1 6 9 -4 9 -13 14 -22 10 -8 -3 -20 -1
-27 5 -9 8 -14 6 -19 -7z"/>
<path d="M8176 3284 c-8 -22 -8 -24 8 -24 9 0 14 9 13 20 -2 24 -13 26 -21 4z"/>
<path d="M7788 3273 c7 -3 16 -2 19 1 4 3 -2 6 -13 5 -11 0 -14 -3 -6 -6z"/>
<path d="M8095 3270 c-8 -13 20 -24 36 -15 8 6 7 10 -2 16 -18 11 -26 11 -34
-1z"/>
<path d="M7090 3255 c0 -8 6 -15 14 -15 8 0 16 -5 18 -12 2 -6 12 -9 21 -5 16
6 16 8 0 27 -20 23 -53 27 -53 5z"/>
<path d="M8053 3264 c-7 -3 -9 -12 -6 -20 3 -8 -3 -21 -13 -29 -18 -13 -18
-14 -1 -15 9 0 17 5 17 11 0 7 10 9 24 5 28 -7 46 11 22 20 -9 3 -16 12 -16
20 0 14 -6 16 -27 8z"/>
<path d="M7808 3246 c-21 -5 -38 -13 -38 -18 0 -4 1 -8 3 -8 39 7 96 28 86 31
-8 3 -31 1 -51 -5z"/>
<path d="M7185 3220 c-9 -17 -14 -37 -11 -43 2 -7 5 -4 5 6 1 9 5 17 11 17 14
0 32 38 20 45 -5 3 -16 -8 -25 -25z"/>
<path d="M8147 3236 c-7 -17 22 -31 36 -17 6 6 2 13 -11 20 -15 8 -21 7 -25
-3z"/>
<path d="M7980 3204 c0 -17 22 -14 28 4 2 7 -3 12 -12 12 -9 0 -16 -7 -16 -16z"/>
<path d="M4019 3141 c-13 -11 -16 -20 -10 -30 8 -12 12 -13 25 -1 9 7 19 10
23 6 3 -3 1 -6 -5 -6 -7 0 -12 -9 -12 -21 0 -19 1 -19 16 -5 8 9 22 16 30 16
8 0 14 9 14 20 0 11 5 20 10 20 6 0 10 -9 10 -20 0 -11 5 -20 10 -20 6 0 10
13 10 29 0 29 -1 30 -51 29 -30 -1 -59 -8 -70 -17z"/>
<path d="M8090 3140 c0 -13 11 -13 30 0 12 8 11 10 -7 10 -13 0 -23 -4 -23
-10z"/>
<path d="M4646 3105 c-3 -8 -1 -15 4 -15 6 0 10 7 10 15 0 8 -2 15 -4 15 -2 0
-6 -7 -10 -15z"/>
<path d="M5340 3110 c-24 -15 -7 -18 20 -3 14 7 18 13 10 13 -8 0 -22 -4 -30
-10z"/>
<path d="M6795 3109 c-4 -5 -13 -8 -21 -5 -8 3 -11 0 -8 -8 5 -14 54 -10 54 5
0 14 -18 20 -25 8z"/>
<path d="M6081 3101 c-8 -6 -9 -11 -3 -15 6 -3 14 -1 17 5 9 14 2 20 -14 10z"/>
<path d="M3857 3074 c-8 -8 1 -24 12 -24 4 0 8 7 8 15 0 16 -9 20 -20 9z"/>
<path d="M4155 3060 c3 -5 10 -10 16 -10 5 0 9 5 9 10 0 6 -7 10 -16 10 -8 0
-12 -4 -9 -10z"/>
<path d="M7460 3023 c0 -13 5 -23 10 -23 13 0 13 11 0 30 -8 12 -10 11 -10 -7z"/>
<path d="M7504 3025 c-10 -8 -14 -14 -9 -15 15 0 40 18 34 24 -3 3 -14 -1 -25
-9z"/>
<path d="M4670 3000 c0 -5 5 -10 10 -10 6 0 10 5 10 10 0 6 -4 10 -10 10 -5 0
-10 -4 -10 -10z"/>
<path d="M5801 2974 c0 -11 3 -14 6 -6 3 7 2 16 -1 19 -3 4 -6 -2 -5 -13z"/>
</g>
</svg>
